<svg width="144" height="93" viewBox="0 0 144 93" fill="none" xmlns="http://www.w3.org/2000/svg">
<g clip-path="url(#clip0_98_99)">
<path d="M126.187 85.8669C130.817 81.2117 130.817 73.6641 126.187 69.0089C121.556 64.3537 114.048 64.3537 109.417 69.0089C104.786 73.6641 104.786 81.2117 109.417 85.8669C114.048 90.5221 121.556 90.5221 126.187 85.8669Z" fill="#2F2E41"/>
<path d="M117.736 78.5344C119.921 78.0481 121.301 75.873 120.817 73.6761C120.333 71.4792 118.17 70.0925 115.984 70.5788C113.799 71.0651 112.419 73.2402 112.903 75.4371C113.387 77.634 115.551 79.0207 117.736 78.5344Z" fill="white"/>
<path d="M115.51 74.8304C116.239 74.6683 116.699 73.9432 116.537 73.211C116.376 72.4787 115.655 72.0164 114.926 72.1785C114.198 72.3406 113.738 73.0657 113.899 73.798C114.061 74.5302 114.782 74.9925 115.51 74.8304Z" fill="#3F3D56"/>
<path d="M117.333 69.3791C112.484 69.3701 109.079 68.4993 109.087 64.0826C109.096 59.6658 113.033 56.0926 117.883 56.1016C122.733 56.1107 126.657 59.6984 126.649 64.1152C126.641 68.5319 122.183 69.3881 117.333 69.3791Z" fill="#643DFF"/>
<path d="M136.387 79.4304C134.996 84.2815 130.935 87.6773 126.698 90.5619C126.106 90.9648 125.515 91.3584 124.923 91.7427C124.919 91.7445 124.914 91.7483 124.91 91.75C124.882 91.7684 124.853 91.7869 124.827 91.8054C124.705 91.8846 124.582 91.9638 124.461 92.042L124.528 92.0721C124.528 92.0721 124.593 92.107 124.522 92.0777C124.5 92.0688 124.478 92.0607 124.457 92.0517C121.996 91.0538 119.491 89.9823 117.604 88.1129C115.648 86.1717 114.504 83.1269 115.564 80.5766C115.703 80.2426 115.879 79.9252 116.088 79.6303C116.174 79.5067 116.267 79.3884 116.363 79.2722C116.948 78.5552 117.711 78.0075 118.576 77.6857C119.441 77.3638 120.375 77.2792 121.283 77.4407C122.192 77.6022 123.04 78.0039 123.743 78.6046C124.445 79.2052 124.976 79.9831 125.28 80.8582C125.591 77.9448 123.202 75.5044 120.902 73.7037C118.601 71.904 115.987 69.944 115.542 67.0468C115.294 65.4349 115.851 63.8727 116.867 62.6187C116.898 62.5806 116.93 62.5425 116.962 62.5055C118.199 61.0449 119.938 60.107 121.832 59.8791C125.36 59.5105 128.787 61.3877 131.35 63.8536C135.475 67.8209 137.969 73.9148 136.387 79.4304Z" fill="#E6E6E6"/>
<path d="M129.756 73.0853C130.433 74.1443 130.953 75.2968 131.299 76.5066C131.592 77.5879 131.722 78.7071 131.686 79.8272C131.591 82.1319 130.948 84.3801 129.809 86.3827C128.951 87.902 127.906 89.3062 126.698 90.562C126.106 90.9648 125.515 91.3584 124.923 91.7427C124.919 91.7445 124.915 91.7483 124.911 91.7501C124.882 91.7684 124.854 91.7869 124.827 91.8054C124.705 91.8846 124.583 91.9638 124.461 92.042C124.461 92.042 124.593 92.107 124.522 92.0777C124.501 92.0688 124.478 92.0607 124.457 92.0517C124.678 90.2336 124.462 88.3888 123.827 86.6719C123.192 84.9551 122.157 83.4161 120.809 82.1841C119.458 80.9708 117.84 80.0958 116.088 79.6303C116.174 79.5067 116.267 79.3884 116.363 79.2722C117.04 79.463 117.698 79.7135 118.331 80.0208C120.593 81.1126 122.444 82.9074 123.612 85.1395C124.66 87.1664 125.112 89.4518 124.913 91.7274C125.014 91.6352 125.115 91.5411 125.213 91.4479C127.084 89.695 128.745 87.6829 129.869 85.3608C130.844 83.3944 131.324 81.217 131.265 79.0204C131.173 76.6253 130.224 74.4068 128.849 72.4755C127.343 70.415 125.563 68.5713 123.56 66.9956C121.541 65.37 119.332 63.9989 116.982 62.9128C116.929 62.8879 116.887 62.8435 116.866 62.7888C116.845 62.734 116.845 62.6732 116.867 62.6187C116.883 62.5698 116.917 62.5291 116.962 62.5055C116.986 62.4954 117.011 62.4907 117.036 62.4918C117.062 62.4928 117.086 62.4997 117.109 62.5117C117.399 62.646 117.687 62.7822 117.973 62.9242C120.354 64.1072 122.579 65.5829 124.598 67.3175C126.548 68.9889 128.384 70.8984 129.756 73.0853Z" fill="white"/>
<path d="M20.296 92.8752C21.9539 92.8752 23.298 92.3685 23.298 91.7435C23.298 91.1185 21.9539 90.6118 20.296 90.6118C18.638 90.6118 17.2939 91.1185 17.2939 91.7435C17.2939 92.3685 18.638 92.8752 20.296 92.8752Z" fill="#2F2E41"/>
<path d="M27.501 92.7243C29.159 92.7243 30.503 92.2176 30.503 91.5926C30.503 90.9676 29.159 90.4609 27.501 90.4609C25.8431 90.4609 24.499 90.9676 24.499 91.5926C24.499 92.2176 25.8431 92.7243 27.501 92.7243Z" fill="#2F2E41"/>
<path d="M37.0656 73.7027C39.9024 72.0587 41.786 70.0003 41.2726 69.105C40.7592 68.2097 38.0432 68.8167 35.2064 70.4607C32.3695 72.1047 30.486 74.1632 30.9994 75.0585C31.5128 75.9537 34.2287 75.3468 37.0656 73.7027Z" fill="#2F2E41"/>
<path d="M34.4023 77.7339C35.4514 71.2354 31.0613 65.1125 24.5969 64.058C18.1326 63.0034 12.0417 67.4166 10.9927 73.915C9.94367 80.4135 14.3337 86.5364 20.7981 87.591C27.2625 88.6455 33.3533 84.2324 34.4023 77.7339Z" fill="#2F2E41"/>
<path d="M20.8964 85.1797H17.2939V91.668H20.8964V85.1797Z" fill="#2F2E41"/>
<path d="M28.1014 85.1797H24.499V91.668H28.1014V85.1797Z" fill="#2F2E41"/>
<path d="M22.998 76.8807C25.2363 76.8807 27.0507 75.0567 27.0507 72.8066C27.0507 70.5566 25.2363 68.7325 22.998 68.7325C20.7598 68.7325 18.9453 70.5566 18.9453 72.8066C18.9453 75.0567 20.7598 76.8807 22.998 76.8807Z" fill="white"/>
<path d="M22.9979 74.1646C23.744 74.1646 24.3488 73.5566 24.3488 72.8066C24.3488 72.0566 23.744 71.4486 22.9979 71.4486C22.2518 71.4486 21.647 72.0566 21.647 72.8066C21.647 73.5566 22.2518 74.1646 22.9979 74.1646Z" fill="#3F3D56"/>
<path d="M11.1948 64.7388C10.2374 60.4282 13.298 56.0725 18.031 55.0101C22.764 53.9477 27.377 56.5809 28.3345 60.8915C29.292 65.2021 26.1552 66.7919 21.4223 67.8543C16.6893 68.9167 12.1523 69.0494 11.1948 64.7388Z" fill="#E6E6E6"/>
<path d="M14.6986 72.8474C15.1391 71.9137 13.0978 70.0133 10.1392 68.6027C7.18063 67.1921 4.42513 66.8055 3.98463 67.7392C3.54412 68.6728 5.5854 70.5733 8.54399 71.9839C11.5026 73.3945 14.2581 73.7811 14.6986 72.8474Z" fill="#2F2E41"/>
<path d="M16.873 80.1249C16.873 81.2915 19.8613 83.5954 23.1773 83.5954C26.4932 83.5954 29.6022 80.3107 29.6022 79.1441C29.6022 77.9774 26.4932 79.3704 23.1773 79.3704C19.8613 79.3704 16.873 78.9582 16.873 80.1249Z" fill="white"/>
<path d="M64.0455 92.8752C65.7034 92.8752 67.0475 92.3685 67.0475 91.7435C67.0475 91.1185 65.7034 90.6118 64.0455 90.6118C62.3875 90.6118 61.0435 91.1185 61.0435 91.7435C61.0435 92.3685 62.3875 92.8752 64.0455 92.8752Z" fill="#2F2E41"/>
<path d="M56.8404 92.7243C58.4984 92.7243 59.8424 92.2176 59.8424 91.5926C59.8424 90.9676 58.4984 90.4609 56.8404 90.4609C55.1824 90.4609 53.8384 90.9676 53.8384 91.5926C53.8384 92.2176 55.1824 92.7243 56.8404 92.7243Z" fill="#2F2E41"/>
<path d="M53.3419 75.0585C53.8553 74.1632 51.9718 72.1047 49.1349 70.4607C46.2981 68.8167 43.5821 68.2097 43.0687 69.105C42.5553 70.0003 44.4389 72.0587 47.2757 73.7027C50.1126 75.3468 52.8285 75.9537 53.3419 75.0585Z" fill="#2F2E41"/>
<path d="M61.6436 87.7448C68.1925 87.7448 73.5015 82.4079 73.5015 75.8244C73.5015 69.2409 68.1925 63.904 61.6436 63.904C55.0946 63.904 49.7856 69.2409 49.7856 75.8244C49.7856 82.4079 55.0946 87.7448 61.6436 87.7448Z" fill="#2F2E41"/>
<path d="M67.0472 85.1797H63.4448V91.668H67.0472V85.1797Z" fill="#2F2E41"/>
<path d="M59.8426 85.1797H56.2402V91.668H59.8426V85.1797Z" fill="#2F2E41"/>
<path d="M58.8652 76.8807C61.1035 76.8807 62.9179 75.0567 62.9179 72.8066C62.9179 70.5566 61.1035 68.7325 58.8652 68.7325C56.627 68.7325 54.8125 70.5566 54.8125 72.8066C54.8125 75.0567 56.627 76.8807 58.8652 76.8807Z" fill="white"/>
<path d="M57.8889 73.2097C58.4182 72.6781 58.4216 71.8188 57.8965 71.2904C57.3713 70.762 56.5165 70.7647 55.9872 71.2963C55.4579 71.8279 55.4545 72.6872 55.9796 73.2156C56.5047 73.744 57.3595 73.7413 57.8889 73.2097Z" fill="#3F3D56"/>
<path d="M62.9189 67.8543C58.1859 66.7919 55.0492 65.2021 56.0066 60.8915C56.9641 56.5808 61.5771 53.9477 66.3101 55.0101C71.0431 56.0725 74.1038 60.4282 73.1463 64.7388C72.1888 69.0494 67.6519 68.9167 62.9189 67.8543Z" fill="#643DFF"/>
<path d="M74.0436 84.9109C75.0371 84.6457 75.1611 81.8516 74.3205 78.6702C73.4799 75.4887 71.9931 73.1247 70.9996 73.39C70.0061 73.6553 69.8821 76.4494 70.7227 79.6308C71.5632 82.8122 73.0501 85.1762 74.0436 84.9109Z" fill="#2F2E41"/>
<path d="M58.9574 79.3706C56.7804 79.3706 54.7393 77.9776 54.7393 79.1442C54.7393 80.3109 56.7804 83.5955 58.9574 83.5955C61.1344 83.5955 63.0963 81.2917 63.0963 80.125C63.0963 78.9583 61.1344 79.3706 58.9574 79.3706Z" fill="white"/>
<path d="M43.6329 56.0599H42.5799C41.6365 56.0589 40.7321 55.6817 40.0651 55.0111C39.398 54.3405 39.0228 53.4314 39.0218 52.4831V51.5943C39.0218 49.393 39.4366 47.5499 40.255 46.1161C41.2467 44.4482 42.4037 42.8855 43.7082 41.4518C44.5743 40.5762 45.3601 39.6241 46.0562 38.6068C46.5557 37.8164 46.8135 36.8962 46.7978 35.96C46.7978 33.7518 45.3667 32.6783 42.4226 32.6783C40.7894 32.6969 39.1666 32.9417 37.6 33.4059C36.9959 33.5793 36.3599 33.6093 35.7423 33.4937C35.1246 33.378 34.5421 33.1199 34.0405 32.7395C33.539 32.3591 33.1321 31.8668 32.8519 31.3015C32.5717 30.7362 32.4258 30.1132 32.4258 29.4816V27.6825C32.4224 26.908 32.6425 26.1491 33.0594 25.4979C33.4764 24.8466 34.0724 24.3309 34.775 24.0133C37.5418 22.8264 40.5256 22.2363 43.5334 22.2813C46.6845 22.2813 49.5289 22.8133 51.9881 23.8625C54.4518 24.9141 56.3982 26.397 57.7732 28.27C59.1442 30.1298 59.8728 32.389 59.8482 34.7036C59.8482 37.1892 59.1732 39.354 57.8419 41.138C56.5252 42.9038 54.6377 44.837 52.2317 46.8841C50.9641 47.9439 49.7628 49.0815 48.6349 50.2904C47.9064 51.0793 47.3915 52.0429 47.1395 53.0891C46.9992 53.9213 46.5698 54.6765 45.9277 55.2204C45.2857 55.7644 44.4726 56.0618 43.6329 56.0599Z" fill="#643DFF"/>
<path d="M43.0471 72.8806H42.9082C41.1599 72.8795 39.4837 72.1805 38.2479 70.9374C37.0121 69.6943 36.3179 68.0087 36.3179 66.2513C36.3179 64.4938 37.0121 62.8082 38.2479 61.5651C39.4837 60.322 41.1599 59.6231 42.9082 59.6219H43.0471C43.9134 59.6214 44.7714 59.7924 45.572 60.1253C46.3726 60.4582 47.1001 60.9464 47.7129 61.5621C48.3257 62.1777 48.8118 62.9087 49.1435 63.7133C49.4752 64.5179 49.6459 65.3803 49.6459 66.2513C49.6459 67.1222 49.4752 67.9846 49.1435 68.7892C48.8118 69.5938 48.3257 70.3248 47.7129 70.9404C47.1001 71.5561 46.3726 72.0443 45.572 72.3772C44.7714 72.7101 43.9134 72.8812 43.0471 72.8806Z" fill="#643DFF"/>
<path d="M85.9044 93H0.275335C0.202311 93 0.132283 92.9708 0.0806476 92.9189C0.0290124 92.867 0 92.7966 0 92.7232C0 92.6498 0.0290124 92.5794 0.0806476 92.5275C0.132283 92.4756 0.202311 92.4464 0.275335 92.4464H85.9044C85.9774 92.4464 86.0474 92.4756 86.0991 92.5275C86.1507 92.5794 86.1797 92.6498 86.1797 92.7232C86.1797 92.7966 86.1507 92.867 86.0991 92.9189C86.0474 92.9708 85.9774 93 85.9044 93Z" fill="#CCCCCC"/>
<path d="M143.725 93H98.019C97.946 93 97.8759 92.9708 97.8243 92.9189C97.7727 92.867 97.7437 92.7966 97.7437 92.7232C97.7437 92.6498 97.7727 92.5794 97.8243 92.5275C97.8759 92.4756 97.946 92.4464 98.019 92.4464H143.725C143.798 92.4464 143.868 92.4756 143.919 92.5275C143.971 92.5794 144 92.6498 144 92.7232C144 92.7966 143.971 92.867 143.919 92.9189C143.868 92.9708 143.798 93 143.725 93Z" fill="#CCCCCC"/>
<path d="M115.357 84.9151C118.631 84.8508 121.269 83.961 121.249 82.9279C121.228 81.8947 118.558 81.1093 115.284 81.1737C112.01 81.238 109.373 82.1278 109.393 83.161C109.413 84.1941 112.083 84.9795 115.357 84.9151Z" fill="#2F2E41"/>
<path d="M112.381 41.2411H105.222C104.857 41.2407 104.507 41.0947 104.249 40.8353C103.991 40.5758 103.846 40.2241 103.846 39.8572V32.6607C103.846 32.2938 103.991 31.9421 104.249 31.6826C104.507 31.4232 104.857 31.2772 105.222 31.2768H112.381C112.746 31.2772 113.096 31.4232 113.354 31.6826C113.612 31.9421 113.757 32.2938 113.758 32.6607V39.8572C113.757 40.2241 113.612 40.5758 113.354 40.8353C113.096 41.0947 112.746 41.2407 112.381 41.2411ZM105.222 31.8304C105.003 31.8306 104.793 31.9182 104.639 32.0738C104.484 32.2295 104.397 32.4406 104.396 32.6607V39.8572C104.397 40.0773 104.484 40.2884 104.639 40.444C104.793 40.5997 105.003 40.6873 105.222 40.6875H112.381C112.6 40.6873 112.81 40.5997 112.965 40.444C113.12 40.2884 113.207 40.0773 113.207 39.8572V32.6607C113.207 32.4406 113.12 32.2295 112.965 32.0738C112.81 31.9182 112.6 31.8306 112.381 31.8304H105.222Z" fill="#F2F2F2"/>
<path d="M115.685 36.5357H108.526C108.161 36.5353 107.811 36.3893 107.553 36.1299C107.295 35.8704 107.15 35.5187 107.149 35.1518V27.9553C107.15 27.5884 107.295 27.2367 107.553 26.9772C107.811 26.7178 108.161 26.5718 108.526 26.5714H115.685C116.05 26.5718 116.4 26.7178 116.658 26.9772C116.916 27.2367 117.061 27.5884 117.061 27.9553V35.1518C117.061 35.5187 116.916 35.8704 116.658 36.1299C116.4 36.3893 116.05 36.5353 115.685 36.5357ZM108.526 27.125C108.307 27.1252 108.097 27.2128 107.942 27.3685C107.787 27.5241 107.7 27.7352 107.7 27.9553V35.1518C107.7 35.3719 107.787 35.583 107.942 35.7387C108.097 35.8943 108.307 35.9819 108.526 35.9821H115.685C115.904 35.9819 116.114 35.8943 116.269 35.7387C116.423 35.583 116.511 35.3719 116.511 35.1518V27.9553C116.511 27.7352 116.423 27.5241 116.269 27.3685C116.114 27.2128 115.904 27.1252 115.685 27.125H108.526Z" fill="#F2F2F2"/>
<path d="M59.2414 13.5625H52.0827C51.7177 13.5621 51.3678 13.4161 51.1097 13.1567C50.8516 12.8972 50.7065 12.5455 50.7061 12.1786V4.98213C50.7065 4.61522 50.8516 4.26346 51.1097 4.00402C51.3678 3.74457 51.7177 3.59863 52.0827 3.59821H59.2414C59.6064 3.59863 59.9563 3.74457 60.2144 4.00402C60.4725 4.26346 60.6177 4.61522 60.6181 4.98213V12.1786C60.6177 12.5455 60.4725 12.8972 60.2144 13.1567C59.9563 13.4161 59.6064 13.5621 59.2414 13.5625ZM52.0827 4.15178C51.8637 4.15202 51.6538 4.23958 51.4989 4.39525C51.3441 4.55092 51.257 4.76198 51.2567 4.98213V12.1786C51.257 12.3987 51.3441 12.6098 51.4989 12.7654C51.6538 12.9211 51.8637 13.0087 52.0827 13.0089H59.2414C59.4604 13.0087 59.6704 12.9211 59.8252 12.7654C59.9801 12.6098 60.0672 12.3987 60.0674 12.1786V4.98213C60.0672 4.76198 59.9801 4.55092 59.8252 4.39525C59.6704 4.23958 59.4604 4.15202 59.2414 4.15178H52.0827Z" fill="#F2F2F2"/>
<path d="M54.8362 9.96428H47.6775C47.3125 9.96387 46.9626 9.81792 46.7045 9.55847C46.4464 9.29903 46.3012 8.94727 46.3008 8.58036V1.38393C46.3012 1.01702 46.4464 0.665257 46.7045 0.405811C46.9626 0.146365 47.3125 0.00041976 47.6775 0H54.8362C55.2011 0.00041976 55.5511 0.146365 55.8091 0.405811C56.0672 0.665257 56.2124 1.01702 56.2128 1.38393V8.58036C56.2124 8.94727 56.0672 9.29903 55.8091 9.55847C55.5511 9.81792 55.2011 9.96387 54.8362 9.96428ZM47.6775 0.553571C47.4585 0.553812 47.2485 0.641373 47.0936 0.797043C46.9388 0.952713 46.8517 1.16378 46.8515 1.38393V8.58036C46.8517 8.80051 46.9388 9.01157 47.0936 9.16724C47.2485 9.32291 47.4585 9.41047 47.6775 9.41071H54.8362C55.0552 9.41047 55.2651 9.32291 55.42 9.16724C55.5748 9.01157 55.6619 8.80051 55.6622 8.58036V1.38393C55.6619 1.16378 55.5748 0.952713 55.42 0.797043C55.2651 0.641373 55.0552 0.553812 54.8362 0.553571H47.6775Z" fill="#F2F2F2"/>
<path d="M88.4432 52.4888C89.4265 52.4888 90.2237 51.6874 90.2237 50.6989C90.2237 49.7103 89.4265 48.9089 88.4432 48.9089C87.4598 48.9089 86.6626 49.7103 86.6626 50.6989C86.6626 51.6874 87.4598 52.4888 88.4432 52.4888Z" fill="#F2F2F2"/>
<path d="M16.8562 46.1227C17.8396 46.1227 18.6368 45.3213 18.6368 44.3328C18.6368 43.3442 17.8396 42.5428 16.8562 42.5428C15.8729 42.5428 15.0757 43.3442 15.0757 44.3328C15.0757 45.3213 15.8729 46.1227 16.8562 46.1227Z" fill="#F2F2F2"/>
<path d="M136.902 61.6227C137.886 61.6227 138.683 60.8213 138.683 59.8328C138.683 58.8442 137.886 58.0428 136.902 58.0428C135.919 58.0428 135.122 58.8442 135.122 59.8328C135.122 60.8213 135.919 61.6227 136.902 61.6227Z" fill="#F2F2F2"/>
</g>
<defs>
<clipPath id="clip0_98_99">
<rect width="144" height="93" fill="white"/>
</clipPath>
</defs>
</svg>
