<svg width="19" height="31" viewBox="0 0 19 31" fill="none" xmlns="http://www.w3.org/2000/svg">
<path d="M9.5 26.2757C14.7467 26.2757 19 22.0224 19 16.7757C19 11.529 14.7467 7.27567 9.5 7.27567C4.2533 7.27567 0 11.529 0 16.7757C0 22.0224 4.2533 26.2757 9.5 26.2757Z" fill="#2F2E41"/>
<path d="M8.05697 24.2314H5.1709V29.4023H8.05697V24.2314Z" fill="#2F2E41"/>
<path d="M13.8285 24.2314H10.9424V29.4023H13.8285V24.2314Z" fill="#2F2E41"/>
<path d="M7.57596 30.3643C8.90425 30.3643 9.98103 29.9605 9.98103 29.4624C9.98103 28.9643 8.90425 28.5605 7.57596 28.5605C6.24768 28.5605 5.1709 28.9643 5.1709 29.4624C5.1709 29.9605 6.24768 30.3643 7.57596 30.3643Z" fill="#2F2E41"/>
<path d="M13.3474 30.244C14.6757 30.244 15.7525 29.8402 15.7525 29.3421C15.7525 28.844 14.6757 28.4402 13.3474 28.4402C12.0192 28.4402 10.9424 28.844 10.9424 29.3421C10.9424 29.8402 12.0192 30.244 13.3474 30.244Z" fill="#2F2E41"/>
<path d="M9.74098 17.6175C11.5342 17.6175 12.9878 16.1638 12.9878 14.3706C12.9878 12.5774 11.5342 11.1238 9.74098 11.1238C7.9478 11.1238 6.49414 12.5774 6.49414 14.3706C6.49414 16.1638 7.9478 17.6175 9.74098 17.6175Z" fill="white"/>
<path d="M9.74097 15.4529C10.3387 15.4529 10.8233 14.9683 10.8233 14.3706C10.8233 13.7729 10.3387 13.2883 9.74097 13.2883C9.14325 13.2883 8.65869 13.7729 8.65869 14.3706C8.65869 14.9683 9.14325 15.4529 9.74097 15.4529Z" fill="#3F3D56"/>
<path d="M0.284977 7.94093C-0.482102 4.50559 1.96995 1.03432 5.7618 0.187635C9.55366 -0.659051 13.2494 1.43948 14.0165 4.87482C14.7835 8.31017 12.2706 9.57718 8.47871 10.4239C4.68687 11.2705 1.05207 11.3763 0.284977 7.94093Z" fill="#643DFF"/>
</svg>
