<svg width="402" height="301" viewBox="0 0 402 301" fill="none" xmlns="http://www.w3.org/2000/svg">
<path d="M175.581 139.013C177.646 138.155 178.623 135.786 177.765 133.722C176.906 131.658 174.537 130.68 172.473 131.539C170.409 132.397 169.431 134.766 170.29 136.83C171.148 138.895 173.517 139.872 175.581 139.013Z" fill="#643DFF"/>
<path d="M88.2918 63.528C89.8399 62.8841 90.573 61.1072 89.9291 59.5591C89.2853 58.0111 87.5084 57.278 85.9603 57.9219C84.4122 58.5657 83.6792 60.3426 84.323 61.8907C84.9668 63.4388 86.7437 64.1718 88.2918 63.528Z" fill="#FF6584"/>
<path d="M64.5575 169.844C66.1055 169.2 66.8386 167.423 66.1947 165.875C65.5509 164.327 63.774 163.594 62.2259 164.238C60.6778 164.881 59.9448 166.658 60.5886 168.206C61.2325 169.754 63.0094 170.488 64.5575 169.844Z" fill="#FF6584"/>
<path d="M154.108 121.641C155.656 120.997 156.389 119.22 155.746 117.672C155.102 116.124 153.325 115.391 151.777 116.035C150.229 116.679 149.496 118.455 150.139 120.004C150.783 121.552 152.56 122.285 154.108 121.641Z" fill="#643DFF"/>
<path d="M87.9745 191.888C89.5225 191.244 90.2556 189.467 89.6117 187.919C88.9679 186.371 87.191 185.638 85.6429 186.282C84.0948 186.926 83.3618 188.703 84.0056 190.251C84.6495 191.799 86.4264 192.532 87.9745 191.888Z" fill="#643DFF"/>
<path d="M175.175 164.39C176.723 163.746 177.456 161.969 176.812 160.421C176.168 158.873 174.391 158.14 172.843 158.783C171.295 159.427 170.562 161.204 171.206 162.752C171.85 164.3 173.627 165.033 175.175 164.39Z" fill="#E6E6E6"/>
<path d="M112.568 79.7347C114.116 79.0909 114.849 77.314 114.205 75.7659C113.562 74.2178 111.785 73.4848 110.237 74.1286C108.689 74.7724 107.956 76.5493 108.599 78.0974C109.243 79.6455 111.02 80.3785 112.568 79.7347Z" fill="#CCCCCC"/>
<path d="M24.3423 150.684C27.1912 149.714 30.2451 149.466 33.2538 149.959C36.2625 150.452 39.1403 151.672 41.6512 153.52C42.3582 154.046 43.2211 154.588 43.2908 155.568C43.3276 155.94 43.2419 156.309 43.0477 156.616C42.8534 156.922 42.5622 157.148 42.2216 157.255C41.7734 157.333 41.3077 157.255 40.8965 157.033C40.4853 156.811 40.1513 156.458 39.9461 156.028C39.7409 155.598 39.6758 155.114 39.761 154.653C39.8461 154.191 40.0767 153.776 40.4172 153.473C41.9818 151.811 44.4756 152.336 46.4839 152.747C51.06 153.684 55.8963 154.241 60.3358 152.718C64.4434 151.309 68.0489 147.877 68.7588 143.307C68.8829 142.507 67.6711 142.32 67.5475 143.116C66.8435 147.648 62.9212 150.802 58.8091 151.857C56.3376 152.435 53.774 152.568 51.2292 152.248C49.9211 152.111 48.6188 151.896 47.3237 151.641C46.0655 151.335 44.7875 151.145 43.5046 151.072C41.4041 151.044 39.0714 152.085 38.5631 154.371C38.089 156.504 40.1287 158.879 42.2628 158.536C42.7253 158.447 43.1553 158.24 43.5141 157.933C43.873 157.626 44.1495 157.229 44.3189 156.778C44.4883 156.326 44.5454 155.834 44.4849 155.346C44.4244 154.858 44.2483 154.389 43.9724 153.98C43.3745 153.089 42.2821 152.428 41.4123 151.858C38.7959 150.137 35.8603 149.033 32.8215 148.627C29.7828 148.221 26.7184 148.522 23.8542 149.51C23.1199 149.772 23.6099 150.945 24.3423 150.684Z" fill="#FFCC00"/>
<path d="M195.688 119.447C193.314 119.013 191.073 118.02 189.149 116.55C187.226 115.081 185.674 113.175 184.622 110.991C184.328 110.372 183.93 109.683 184.259 109.003C184.376 108.742 184.579 108.528 184.833 108.397C185.087 108.267 185.379 108.227 185.66 108.284C186.004 108.402 186.301 108.631 186.505 108.935C186.708 109.239 186.807 109.601 186.785 109.966C186.764 110.33 186.623 110.677 186.386 110.953C186.148 111.228 185.827 111.417 185.47 111.491C183.732 112.005 182.182 110.709 180.93 109.674C178.076 107.313 174.893 105.108 171.188 104.439C167.761 103.821 163.906 104.742 161.648 107.52C161.253 108.006 162.032 108.591 162.425 108.107C164.665 105.352 168.635 104.736 171.929 105.593C173.888 106.144 175.74 107.028 177.404 108.206C178.27 108.794 179.102 109.431 179.914 110.093C180.68 110.774 181.504 111.386 182.377 111.921C183.842 112.736 185.881 112.927 187.119 111.595C187.385 111.276 187.574 110.899 187.669 110.493C187.764 110.087 187.763 109.664 187.666 109.258C187.57 108.852 187.38 108.474 187.112 108.154C186.844 107.833 186.506 107.58 186.124 107.415C185.765 107.299 185.383 107.274 185.013 107.342C184.642 107.411 184.295 107.57 184.002 107.807C183.71 108.044 183.48 108.35 183.335 108.699C183.189 109.047 183.132 109.427 183.169 109.804C183.338 110.655 183.672 111.466 184.15 112.19C185.325 114.33 186.962 116.179 188.94 117.603C190.918 119.026 193.187 119.987 195.579 120.414C196.196 120.519 196.303 119.551 195.688 119.447Z" fill="#FFCC00"/>
<path d="M73.2491 83.9059C70.9853 84.6829 68.5671 84.9073 66.1929 84.5609C63.8186 84.2144 61.5559 83.307 59.5901 81.9129C59.0366 81.516 58.36 81.1084 58.3156 80.3551C58.2906 80.0697 58.3624 79.7847 58.5193 79.5469C58.6763 79.3091 58.9091 79.1325 59.1796 79.0459C59.535 78.9812 59.9024 79.0362 60.2253 79.2023C60.5481 79.3685 60.8084 79.6366 60.966 79.9653C61.1236 80.294 61.1698 80.665 61.0974 81.0212C61.0251 81.3773 60.8382 81.6988 60.5656 81.936C59.31 83.231 57.3432 82.8547 55.7593 82.5603C52.1502 81.8895 48.3311 81.5137 44.8032 82.7334C41.5391 83.862 38.65 86.5416 38.0388 90.065C37.9318 90.6814 38.8883 90.8121 38.9947 90.1988C39.6009 86.7045 42.7375 84.2355 46.0013 83.3792C47.9624 82.9074 49.9915 82.7776 52.0007 82.9955C53.0339 83.0872 54.0615 83.2378 55.083 83.4205C56.0748 83.642 57.0836 83.7744 58.0974 83.8164C59.7585 83.8148 61.6148 82.989 62.0417 81.2245C62.1183 80.8166 62.0989 80.3957 61.985 79.9954C61.8712 79.5951 61.6661 79.2265 61.3862 78.9191C61.1063 78.6117 60.7592 78.3741 60.3728 78.2251C59.9864 78.0761 59.5714 78.02 59.1609 78.0612C58.7942 78.1347 58.4518 78.2988 58.1647 78.5387C57.8775 78.7787 57.6545 79.0871 57.5156 79.4362C57.3766 79.7853 57.3262 80.1643 57.3687 80.5392C57.4112 80.9141 57.5454 81.2731 57.7592 81.5841C58.3173 82.2443 58.9972 82.7895 59.7608 83.1891C61.8114 84.4841 64.1213 85.3013 66.5203 85.5807C68.9192 85.8601 71.3462 85.5945 73.6224 84.8034C74.206 84.5942 73.8312 83.6973 73.2491 83.9059Z" fill="#FFCC00"/>
<path d="M87.2484 111.088L84.4453 112.254L87.9426 120.663L90.7457 119.497L87.2484 111.088Z" fill="#CCCCCC"/>
<path d="M41.4399 122.633L42.5186 120.018L33.9274 116.474L32.8487 119.089L41.4399 122.633Z" fill="#B3B3B3"/>
<path d="M123.781 109.909L126.396 110.988L129.94 102.396L127.325 101.318L123.781 109.909Z" fill="#B3B3B3"/>
<path d="M79.7027 216.758L82.3174 217.837L85.8615 209.246L83.2468 208.167L79.7027 216.758Z" fill="#FF6584"/>
<path d="M351.265 171.815C353.403 172.855 355.979 171.966 357.019 169.828C358.059 167.691 357.169 165.115 355.032 164.075C352.895 163.035 350.319 163.924 349.279 166.062C348.239 168.199 349.128 170.775 351.265 171.815Z" fill="#643DFF"/>
<path d="M349.948 49.1203C351.551 49.9003 353.482 49.2332 354.263 47.6303C355.043 46.0273 354.376 44.0955 352.773 43.3154C351.17 42.5353 349.238 43.2024 348.458 44.8054C347.678 46.4083 348.345 48.3402 349.948 49.1203Z" fill="#FF6584"/>
<path d="M248.532 105.068C250.135 105.848 252.066 105.181 252.847 103.578C253.627 101.975 252.96 100.043 251.357 99.2627C249.754 98.4826 247.822 99.1497 247.042 100.753C246.262 102.356 246.929 104.287 248.532 105.068Z" fill="#FF6584"/>
<path d="M349.989 142.475C351.592 143.255 353.523 142.588 354.304 140.985C355.084 139.382 354.417 137.45 352.814 136.67C351.211 135.89 349.279 136.557 348.499 138.16C347.719 139.763 348.386 141.695 349.989 142.475Z" fill="#643DFF"/>
<path d="M247.455 139.245C249.058 140.025 250.99 139.358 251.77 137.755C252.55 136.152 251.883 134.22 250.28 133.44C248.677 132.66 246.746 133.327 245.965 134.93C245.185 136.533 245.852 138.465 247.455 139.245Z" fill="#643DFF"/>
<path d="M330.762 189.359C332.365 190.139 334.297 189.472 335.077 187.869C335.857 186.266 335.19 184.334 333.587 183.554C331.984 182.774 330.052 183.441 329.272 185.044C328.492 186.647 329.159 188.579 330.762 189.359Z" fill="#E6E6E6"/>
<path d="M354.128 79.8729C355.731 80.6529 357.663 79.9858 358.443 78.3829C359.223 76.7799 358.556 74.8481 356.953 74.068C355.35 73.2879 353.418 73.955 352.638 75.558C351.858 77.1609 352.525 79.0928 354.128 79.8729Z" fill="#CCCCCC"/>
<path d="M235.484 59.5311C238.263 61.1174 240.613 63.3718 242.341 66.1096C244.07 68.8474 245.128 71.9906 245.429 75.2816C245.509 76.2121 245.687 77.278 244.957 78.02C244.687 78.3096 244.333 78.5 243.953 78.5602C243.572 78.6203 243.188 78.5467 242.862 78.3512C242.484 78.0493 242.218 77.6243 242.105 77.142C241.991 76.6596 242.037 76.1466 242.234 75.6821C242.431 75.2176 242.77 74.8274 243.197 74.5716C243.624 74.3159 244.116 74.2088 244.597 74.267C247.021 74.3476 248.361 76.6981 249.45 78.5831C251.931 82.8781 254.897 87.1141 259.236 89.5779C263.252 91.8574 268.521 92.3204 272.655 89.6838C273.378 89.2225 272.673 88.1278 271.953 88.5868C267.854 91.2016 262.582 90.2917 258.845 87.7606C256.643 86.2004 254.731 84.2546 253.191 82.0073C252.379 80.8706 251.631 79.685 250.922 78.4759C250.278 77.2613 249.528 76.1117 248.682 75.0406C247.223 73.3508 244.752 72.2247 242.576 73.4221C240.546 74.5391 240.096 77.8244 241.873 79.281C242.27 79.5865 242.738 79.7833 243.234 79.8537C243.731 79.9241 244.242 79.866 244.72 79.6845C245.198 79.503 245.63 79.2038 245.975 78.8138C246.32 78.4238 246.569 77.9551 246.699 77.4498C246.986 76.35 246.742 75.0181 246.582 73.9272C246.106 70.6416 244.914 67.5339 243.095 64.833C241.277 62.132 238.877 59.9067 236.073 58.3209C235.347 57.9202 234.76 59.1314 235.484 59.5311Z" fill="#FFCC00"/>
<path d="M380.863 174.366C379.545 172.152 378.768 169.646 378.598 167.053C378.427 164.46 378.866 161.854 379.88 159.447C380.17 158.769 380.444 157.958 381.22 157.735C381.513 157.641 381.826 157.651 382.109 157.761C382.393 157.871 382.629 158.076 382.78 158.342C382.927 158.703 382.952 159.105 382.851 159.485C382.75 159.866 382.529 160.204 382.221 160.448C381.914 160.691 381.537 160.827 381.149 160.834C380.761 160.84 380.384 160.718 380.075 160.485C378.442 159.459 378.394 157.29 378.346 155.546C378.237 151.57 377.773 147.441 375.709 143.994C373.799 140.804 370.355 138.374 366.542 138.552C365.874 138.583 365.952 139.625 366.616 139.594C370.399 139.418 373.678 142.16 375.304 145.413C376.236 147.377 376.826 149.494 377.049 151.671C377.185 152.785 377.258 153.908 377.297 155.031C377.288 156.133 377.376 157.231 377.559 158.313C377.933 160.071 379.211 161.841 381.148 161.88C381.591 161.866 382.026 161.747 382.418 161.533C382.81 161.319 383.149 161.016 383.407 160.648C383.665 160.279 383.835 159.857 383.904 159.413C383.973 158.969 383.939 158.517 383.803 158.092C383.645 157.721 383.397 157.398 383.082 157.15C382.767 156.902 382.395 156.738 382 156.673C381.604 156.608 381.197 156.643 380.816 156.776C380.434 156.908 380.09 157.134 379.813 157.433C379.249 158.178 378.833 159.025 378.587 159.927C377.695 162.399 377.36 165.035 377.607 167.638C377.853 170.242 378.674 172.748 380.01 174.971C380.359 175.539 381.211 174.933 380.863 174.366Z" fill="#FFCC00"/>
<path d="M323.048 51.6313C320.836 50.3728 318.959 48.5954 317.571 46.4447C316.183 44.294 315.323 41.8313 315.061 39.2584C314.991 38.531 314.844 37.6971 315.417 37.1226C315.628 36.8982 315.907 36.7519 316.208 36.7076C316.509 36.6632 316.814 36.7234 317.073 36.8784C317.375 37.1169 317.588 37.4507 317.682 37.8283C317.775 38.2059 317.743 38.6063 317.589 38.9678C317.436 39.3292 317.171 39.6317 316.835 39.8285C316.498 40.0253 316.109 40.1055 315.727 40.0568C313.807 39.977 312.729 38.1315 311.854 36.6515C309.859 33.279 307.48 29.9494 304.026 27.9946C300.83 26.1861 296.652 25.7877 293.397 27.8186C292.827 28.1739 293.393 29.0339 293.96 28.6804C297.189 26.6663 301.371 27.4137 304.348 29.4169C306.103 30.651 307.631 32.1843 308.867 33.9505C309.518 34.8441 310.118 35.7755 310.689 36.7249C311.207 37.6782 311.809 38.5814 312.487 39.424C313.654 40.7541 315.619 41.651 317.334 40.7308C317.715 40.5004 318.039 40.1837 318.28 39.806C318.522 39.4284 318.673 39.0004 318.724 38.5561C318.774 38.1118 318.721 37.6636 318.569 37.2474C318.418 36.8311 318.171 36.4584 317.85 36.1589C317.534 35.9175 317.162 35.7605 316.768 35.7021C316.374 35.6436 315.97 35.6855 315.592 35.8239C315.215 35.9624 314.875 36.1931 314.604 36.4953C314.334 36.7976 314.14 37.162 314.04 37.5558C313.902 38.4755 313.942 39.4105 314.157 40.3084C314.558 42.8783 315.523 45.3142 316.982 47.4367C318.442 49.5592 320.358 51.3143 322.59 52.5725C323.168 52.8906 323.624 51.9485 323.048 51.6313Z" fill="#FFCC00"/>
<path d="M311.32 81.7763L308.418 80.3638L304.181 89.0711L307.083 90.4836L311.32 81.7763Z" fill="#CCCCCC"/>
<path d="M269.868 53.4075L272.711 52.4258L269.486 43.0856L266.643 44.0672L269.868 53.4075Z" fill="#B3B3B3"/>
<path d="M337.982 110.053L338.964 112.895L348.304 109.67L347.323 106.827L337.982 110.053Z" fill="#B3B3B3"/>
<path d="M221.818 150.166L222.8 153.009L232.14 149.784L231.158 146.941L221.818 150.166Z" fill="#FF6584"/>
<path d="M189 248.906C198.941 248.906 207 240.848 207 230.906C207 220.965 198.941 212.906 189 212.906C179.059 212.906 171 220.965 171 230.906C171 240.848 179.059 248.906 189 248.906Z" fill="#2F2E41"/>
<path d="M186.266 245.033H180.798V254.831H186.266V245.033Z" fill="#2F2E41"/>
<path d="M197.203 245.033H191.734V254.831H197.203V245.033Z" fill="#2F2E41"/>
<path d="M185.355 256.653C187.872 256.653 189.912 255.888 189.912 254.944C189.912 254.001 187.872 253.236 185.355 253.236C182.838 253.236 180.798 254.001 180.798 254.944C180.798 255.888 182.838 256.653 185.355 256.653Z" fill="#2F2E41"/>
<path d="M196.291 256.425C198.808 256.425 200.848 255.66 200.848 254.717C200.848 253.773 198.808 253.008 196.291 253.008C193.775 253.008 191.734 253.773 191.734 254.717C191.734 255.66 193.775 256.425 196.291 256.425Z" fill="#2F2E41"/>
<path d="M189.456 232.501C192.853 232.501 195.608 229.747 195.608 226.35C195.608 222.952 192.853 220.198 189.456 220.198C186.058 220.198 183.304 222.952 183.304 226.35C183.304 229.747 186.058 232.501 189.456 232.501Z" fill="white"/>
<path d="M189.456 228.4C190.588 228.4 191.507 227.482 191.507 226.349C191.507 225.217 190.588 224.299 189.456 224.299C188.323 224.299 187.405 225.217 187.405 226.349C187.405 227.482 188.323 228.4 189.456 228.4Z" fill="#3F3D56"/>
<path d="M171.54 214.167C170.086 207.658 174.732 201.081 181.917 199.477C189.101 197.872 196.104 201.848 197.557 208.358C199.011 214.867 194.249 217.267 187.065 218.871C179.88 220.476 172.993 220.676 171.54 214.167Z" fill="#643DFF"/>
<path d="M195.8 237.183C195.901 237.738 195.892 238.308 195.773 238.86C195.655 239.412 195.428 239.935 195.107 240.399C194.786 240.863 194.377 241.259 193.902 241.565C193.428 241.871 192.898 242.081 192.343 242.182C191.788 242.283 191.218 242.274 190.666 242.155C190.114 242.035 189.592 241.809 189.128 241.487C188.664 241.166 188.267 240.756 187.962 240.282C187.656 239.807 187.447 239.277 187.346 238.722L187.345 238.714C186.922 236.379 188.727 235.553 191.062 235.13C193.397 234.707 195.377 234.848 195.8 237.183Z" fill="white"/>
<path d="M301 292.906C310.941 292.906 319 284.848 319 274.906C319 264.965 310.941 256.906 301 256.906C291.059 256.906 283 264.965 283 274.906C283 284.848 291.059 292.906 301 292.906Z" fill="#2F2E41"/>
<path d="M298.265 289.033H292.797V298.83H298.265V289.033Z" fill="#2F2E41"/>
<path d="M309.203 289.033H303.734V298.83H309.203V289.033Z" fill="#2F2E41"/>
<path d="M297.354 300.653C299.871 300.653 301.911 299.888 301.911 298.944C301.911 298.001 299.871 297.236 297.354 297.236C294.837 297.236 292.797 298.001 292.797 298.944C292.797 299.888 294.837 300.653 297.354 300.653Z" fill="#2F2E41"/>
<path d="M308.291 300.425C310.808 300.425 312.848 299.66 312.848 298.717C312.848 297.773 310.808 297.008 308.291 297.008C305.775 297.008 303.734 297.773 303.734 298.717C303.734 299.66 305.775 300.425 308.291 300.425Z" fill="#2F2E41"/>
<path d="M301.456 276.501C304.853 276.501 307.608 273.747 307.608 270.349C307.608 266.952 304.853 264.198 301.456 264.198C298.058 264.198 295.304 266.952 295.304 270.349C295.304 273.747 298.058 276.501 301.456 276.501Z" fill="white"/>
<path d="M301.456 272.4C302.588 272.4 303.507 271.482 303.507 270.349C303.507 269.217 302.588 268.299 301.456 268.299C300.323 268.299 299.405 269.217 299.405 270.349C299.405 271.482 300.323 272.4 301.456 272.4Z" fill="#3F3D56"/>
<path d="M283.54 258.167C282.086 251.658 286.732 245.081 293.917 243.476C301.101 241.872 308.104 245.848 309.557 252.357C311.011 258.867 306.249 261.267 299.065 262.871C291.88 264.476 284.993 264.676 283.54 258.167Z" fill="#643DFF"/>
<path d="M295.113 188.564C304.706 188.564 312.482 180.787 312.482 171.194C312.482 161.602 304.706 153.825 295.113 153.825C285.52 153.825 277.743 161.602 277.743 171.194C277.743 180.787 285.52 188.564 295.113 188.564Z" fill="#2F2E41"/>
<path d="M305.329 183.2L300.137 184.14L301.821 193.443L307.013 192.503L305.329 183.2Z" fill="#2F2E41"/>
<path d="M294.944 185.08L289.752 186.02L291.436 195.323L296.628 194.383L294.944 185.08Z" fill="#2F2E41"/>
<path d="M294.193 197.279C296.046 195.71 297.072 193.874 296.483 193.179C295.894 192.484 293.915 193.193 292.062 194.762C290.208 196.332 289.183 198.168 289.772 198.863C290.36 199.558 292.34 198.849 294.193 197.279Z" fill="#2F2E41"/>
<path d="M304.361 195.438C306.214 193.869 307.24 192.033 306.651 191.338C306.062 190.643 304.083 191.352 302.23 192.922C300.376 194.491 299.351 196.327 299.94 197.022C300.528 197.717 302.508 197.008 304.361 195.438Z" fill="#2F2E41"/>
<path d="M293.897 172.882C297.176 172.882 299.834 170.224 299.834 166.946C299.834 163.667 297.176 161.009 293.897 161.009C290.619 161.009 287.961 163.667 287.961 166.946C287.961 170.224 290.619 172.882 293.897 172.882Z" fill="white"/>
<path d="M291.457 166.797C292.55 166.797 293.436 165.911 293.436 164.818C293.436 163.725 292.55 162.839 291.457 162.839C290.364 162.839 289.479 163.725 289.479 164.818C289.479 165.911 290.364 166.797 291.457 166.797Z" fill="#3F3D56"/>
<path d="M308.815 152.298C309.076 145.868 303.534 140.421 296.436 140.133C289.338 139.845 283.373 144.824 283.111 151.254C282.85 157.685 287.784 159.146 294.882 159.434C301.98 159.722 308.554 158.729 308.815 152.298Z" fill="#643DFF"/>
<path d="M287.54 169.97C287.876 168.503 284.359 166.444 279.683 165.373C275.008 164.301 270.946 164.622 270.609 166.09C270.273 167.557 273.79 169.616 278.465 170.688C283.14 171.759 287.203 171.438 287.54 169.97Z" fill="#2F2E41"/>
<path d="M174.994 231.969C173.562 231.501 171.193 234.816 169.701 239.375C168.21 243.934 168.16 248.009 169.591 248.477C171.022 248.945 173.392 245.63 174.884 241.071C176.375 236.512 176.425 232.437 174.994 231.969Z" fill="#2F2E41"/>
<path d="M201.143 233.458C202.326 234.389 205.689 232.088 208.655 228.318C211.621 224.548 213.065 220.738 211.882 219.807C210.699 218.876 207.335 221.177 204.369 224.947C201.404 228.716 199.959 232.527 201.143 233.458Z" fill="#2F2E41"/>
<path d="M321.635 175.641C321.972 174.173 318.454 172.114 313.779 171.043C309.104 169.971 305.041 170.292 304.705 171.76C304.368 173.227 307.886 175.286 312.561 176.358C317.236 177.429 321.299 177.108 321.635 175.641Z" fill="#2F2E41"/>
<path d="M299.884 178.04C299.977 178.551 299.969 179.076 299.859 179.584C299.75 180.093 299.541 180.574 299.246 181.002C298.95 181.43 298.573 181.795 298.136 182.077C297.699 182.359 297.211 182.552 296.699 182.645C296.188 182.738 295.663 182.729 295.155 182.62C294.646 182.51 294.165 182.301 293.737 182.005C293.31 181.709 292.945 181.331 292.663 180.894C292.382 180.457 292.189 179.969 292.096 179.457L292.095 179.45C291.706 177.299 293.368 176.538 295.519 176.148C297.67 175.759 299.494 175.889 299.884 178.04Z" fill="white"/>
<path d="M309.87 280.266C310.059 280.798 310.042 281.344 309.821 281.872C309.6 282.401 309.178 282.902 308.58 283.346C307.981 283.791 307.219 284.171 306.335 284.464C305.451 284.757 304.463 284.958 303.429 285.054C302.394 285.151 301.332 285.142 300.304 285.028C299.276 284.914 298.302 284.697 297.437 284.389C296.573 284.081 295.834 283.689 295.265 283.234C294.695 282.78 294.306 282.272 294.118 281.74L294.115 281.732C293.328 279.496 298.649 282.277 303 281.872C307.351 281.468 309.082 278.03 309.87 280.266Z" fill="white"/>
<path d="M75.5396 280.659C75.876 279.192 72.3587 277.133 67.6835 276.061C63.0083 274.99 58.9456 275.311 58.6091 276.778C58.2727 278.246 61.79 280.305 66.4652 281.376C71.1404 282.448 75.2031 282.127 75.5396 280.659Z" fill="#2F2E41"/>
<path d="M108.421 261.549C107.139 260.76 104.062 263.433 101.549 267.519C99.0367 271.604 98.0395 275.556 99.3222 276.345C100.605 277.134 103.681 274.461 106.194 270.375C108.707 266.29 109.704 262.338 108.421 261.549Z" fill="#2F2E41"/>
<path d="M85 288.906C94.9411 288.906 103 280.848 103 270.906C103 260.965 94.9411 252.906 85 252.906C75.0589 252.906 67 260.965 67 270.906C67 280.848 75.0589 288.906 85 288.906Z" fill="#2F2E41"/>
<path d="M82.2652 285.033H76.7969V294.83H82.2652V285.033Z" fill="#2F2E41"/>
<path d="M93.2027 285.033H87.7344V294.83H93.2027V285.033Z" fill="#2F2E41"/>
<path d="M81.3538 296.653C83.8706 296.653 85.9108 295.888 85.9108 294.944C85.9108 294.001 83.8706 293.236 81.3538 293.236C78.8371 293.236 76.7969 294.001 76.7969 294.944C76.7969 295.888 78.8371 296.653 81.3538 296.653Z" fill="#2F2E41"/>
<path d="M92.2913 296.425C94.8081 296.425 96.8483 295.66 96.8483 294.717C96.8483 293.773 94.8081 293.008 92.2913 293.008C89.7746 293.008 87.7344 293.773 87.7344 294.717C87.7344 295.66 89.7746 296.425 92.2913 296.425Z" fill="#2F2E41"/>
<path d="M85.4556 272.501C88.8532 272.501 91.6075 269.747 91.6075 266.349C91.6075 262.952 88.8532 260.198 85.4556 260.198C82.058 260.198 79.3037 262.952 79.3037 266.349C79.3037 269.747 82.058 272.501 85.4556 272.501Z" fill="white"/>
<path d="M85.4559 268.4C86.5884 268.4 87.5066 267.482 87.5066 266.349C87.5066 265.217 86.5884 264.299 85.4559 264.299C84.3234 264.299 83.4053 265.217 83.4053 266.349C83.4053 267.482 84.3234 268.4 85.4559 268.4Z" fill="#3F3D56"/>
<path d="M67.5395 254.167C66.0861 247.658 70.7321 241.081 77.9167 239.476C85.1013 237.872 92.1037 241.848 93.5571 248.357C95.0105 254.867 90.2491 257.267 83.0645 258.871C75.88 260.476 68.993 260.676 67.5395 254.167Z" fill="#643DFF"/>
<path d="M82.4513 279.635C82.8152 280.786 86.5683 282.099 89.9355 281.034C93.3027 279.97 95.4353 275.731 95.0714 274.58C94.7075 273.43 91.9849 275.802 88.6177 276.867C85.2505 277.931 82.0874 278.484 82.4513 279.635Z" fill="white"/>
</svg>
