<svg width="36" height="58" viewBox="0 0 36 58" fill="none" xmlns="http://www.w3.org/2000/svg">
<path d="M18 49.7855C27.9411 49.7855 36 41.7266 36 31.7855C36 21.8443 27.9411 13.7855 18 13.7855C8.05888 13.7855 0 21.8443 0 31.7855C0 41.7266 8.05888 49.7855 18 49.7855Z" fill="#2F2E41"/>
<path d="M15.2657 45.912H9.79736V55.7095H15.2657V45.912Z" fill="#2F2E41"/>
<path d="M26.2027 45.912H20.7344V55.7095H26.2027V45.912Z" fill="#2F2E41"/>
<path d="M14.3543 57.5323C16.8711 57.5323 18.9113 56.7672 18.9113 55.8235C18.9113 54.8797 16.8711 54.1146 14.3543 54.1146C11.8376 54.1146 9.79736 54.8797 9.79736 55.8235C9.79736 56.7672 11.8376 57.5323 14.3543 57.5323Z" fill="#2F2E41"/>
<path d="M25.2913 57.3045C27.8081 57.3045 29.8483 56.5394 29.8483 55.5956C29.8483 54.6518 27.8081 53.8867 25.2913 53.8867C22.7746 53.8867 20.7344 54.6518 20.7344 55.5956C20.7344 56.5394 22.7746 57.3045 25.2913 57.3045Z" fill="#2F2E41"/>
<path d="M18.4556 33.3804C21.8532 33.3804 24.6075 30.6261 24.6075 27.2285C24.6075 23.8309 21.8532 21.0766 18.4556 21.0766C15.058 21.0766 12.3037 23.8309 12.3037 27.2285C12.3037 30.6261 15.058 33.3804 18.4556 33.3804Z" fill="white"/>
<path d="M18.4559 29.2791C19.5884 29.2791 20.5066 28.361 20.5066 27.2285C20.5066 26.096 19.5884 25.1779 18.4559 25.1779C17.3234 25.1779 16.4053 26.096 16.4053 27.2285C16.4053 28.361 17.3234 29.2791 18.4559 29.2791Z" fill="#3F3D56"/>
<path d="M0.539546 15.046C-0.913868 8.5369 3.73212 1.95977 10.9167 0.35552C18.1013 -1.24873 25.1037 2.72743 26.5571 9.2365C28.0105 15.7456 23.2491 18.1462 16.0645 19.7505C8.87997 21.3547 1.99298 21.5551 0.539546 15.046Z" fill="#643DFF"/>
<path d="M24.7991 38.062C24.9006 38.6172 24.8916 39.187 24.7728 39.7388C24.654 40.2905 24.4276 40.8135 24.1066 41.2778C23.7856 41.742 23.3763 42.1385 22.902 42.4445C22.4277 42.7504 21.8978 42.96 21.3425 43.0611C20.7872 43.1621 20.2174 43.1528 19.6657 43.0336C19.114 42.9144 18.5912 42.6877 18.1272 42.3663C17.6631 42.045 17.267 41.6353 16.9613 41.1608C16.6557 40.6863 16.4466 40.1562 16.3459 39.6008L16.3444 39.5925C15.9217 37.2578 17.7269 36.4317 20.0616 36.009C22.3963 35.5864 24.3764 35.7273 24.7991 38.062Z" fill="white"/>
</svg>
